  0
SECTION
  2
HEADER
  9
$ACADVER
  1
AC1009
  9
$DWGCODEPAGE
  3
ANSI_1252
  9
$INSBASE
 10
0.0
 20
0.0
 30
0.0
  9
$EXTMIN
 10
-100
 20
-100
 30
-100
  9
$EXTMAX
 10
100
 20
100
 30
100
  9
$LIMMIN
 10
0.0
 20
0.0
  9
$LIMMAX
 10
420.0
 20
297.0
  9
$ORTHOMODE
 70
0
  9
$REGENMODE
 70
1
  9
$DRAGMODE
 70
2
  9
$FILLMODE
 70
1
  9
$QTEXTMODE
 70
0
  9
$MIRRTEXT
 70
1
  9
$OSMODE
 70
20583
  9
$LTSCALE
 40
1.0
  9
$ATTMODE
 70
1
  9
$TEXTSIZE
 40
2.5
  9
$TRACEWID
 40
1.0
  9
$TEXTSTYLE
  7
Standard
  9
$CLAYER
  8
0
  9
$CELTYPE
  6
ByLayer
  9
$CECOLOR
 62
256
  9
$DIMSCALE
 40
1.0
  9
$DIMASZ
 40
2.5
  9
$DIMEXO
 40
0.625
  9
$DIMDLI
 40
3.75
  9
$DIMRND
 40
0.0
  9
$DIMDLE
 40
0.0
  9
$DIMEXE
 40
1.25
  9
$DIMTP
 40
0.0
  9
$DIMTM
 40
0.0
  9
$DIMTXT
 40
2.5
  9
$DIMCEN
 40
2.5
  9
$DIMTSZ
 40
0.0
  9
$DIMTOL
 70
0
  9
$DIMLIM
 70
0
  9
$DIMTIH
 70
0
  9
$DIMTOH
 70
0
  9
$DIMSE1
 70
0
  9
$DIMSE2
 70
0
  9
$DIMTAD
 70
1
  9
$DIMZIN
 70
8
  9
$DIMBLK
  1

  9
$DIMASO
 70
1
  9
$DIMSHO
 70
1
  9
$DIMPOST
  1

  9
$DIMAPOST
  1

  9
$DIMALT
 70
0
  9
$DIMALTD
 70
3
  9
$DIMALTF
 40
0.03937007874
  9
$DIMLFAC
 40
1.0
  9
$DIMTOFL
 70
1
  9
$DIMTVP
 40
0.0
  9
$DIMTIX
 70
0
  9
$DIMSOXD
 70
0
  9
$DIMSAH
 70
0
  9
$DIMBLK1
  1

  9
$DIMBLK2
  1

  9
$DIMSTYLE
  2
ISO-25
  9
$DIMCLRD
 70
0
  9
$DIMCLRE
 70
0
  9
$DIMCLRT
 70
0
  9
$DIMTFAC
 40
1.0
  9
$DIMGAP
 40
0.625
  9
$COORDS
 70
1
  9
$ATTDIA
 70
0
  9
$ATTREQ
 70
1
  9
$HANDLING
 70
1
  9
$LUNITS
 70
2
  9
$LUPREC
 70
4
  9
$SKETCHINC
 40
1.0
  9
$FILLETRAD
 40
10.0
  9
$AUNITS
 70
0
  9
$AUPREC
 70
2
  9
$MENU
  1
.
  9
$ELEVATION
 40
0.0
  9
$PELEVATION
 40
0.0
  9
$THICKNESS
 40
0.0
  9
$LIMCHECK
 70
0
  9
$CHAMFERA
 40
0.0
  9
$CHAMFERB
 40
0.0
  9
$SKPOLY
 70
0
  9
$TDCREATE
 40
2459502.680601852
  9
$TDUPDATE
 40
2459502.680601852
  9
$TDINDWG
 40
0.0
  9
$TDUSRTIMER
 40
0.0
  9
$USRTIMER
 70
1
  9
$ANGBASE
 50
0.0
  9
$ANGDIR
 70
0
  9
$PDMODE
 70
0
  9
$PDSIZE
 40
0.0
  9
$PLINEWID
 40
0.0
  9
$SPLFRAME
 70
0
  9
$SPLINETYPE
 70
6
  9
$SPLINESEGS
 70
8
  9
$HANDSEED
  5
217
  9
$SURFTAB1
 70
6
  9
$SURFTAB2
 70
6
  9
$SURFTYPE
 70
6
  9
$SURFU
 70
6
  9
$SURFV
 70
6
  9
$UCSNAME
  2

  9
$UCSORG
 10
0.0
 20
0.0
 30
0.0
  9
$UCSXDIR
 10
1.0
 20
0.0
 30
0.0
  9
$UCSYDIR
 10
0.0
 20
1.0
 30
0.0
  9
$PUCSNAME
  2

  9
$PUCSORG
 10
0.0
 20
0.0
 30
0.0
  9
$PUCSXDIR
 10
1.0
 20
0.0
 30
0.0
  9
$PUCSYDIR
 10
0.0
 20
1.0
 30
0.0
  9
$USERI1
 70
0
  9
$USERI2
 70
0
  9
$USERI3
 70
0
  9
$USERI4
 70
0
  9
$USERI5
 70
0
  9
$USERR1
 40
0.0
  9
$USERR2
 40
0.0
  9
$USERR3
 40
0.0
  9
$USERR4
 40
0.0
  9
$USERR5
 40
0.0
  9
$WORLDVIEW
 70
1
  9
$SHADEDGE
 70
3
  9
$SHADEDIF
 70
70
  9
$TILEMODE
 70
1
  9
$MAXACTVP
 70
64
  9
$PLIMCHECK
 70
0
  9
$PEXTMIN
 10
1e+20
 20
1e+20
 30
1e+20
  9
$PEXTMAX
 10
-1e+20
 20
-1e+20
 30
-1e+20
  9
$PLIMMIN
 10
0.0
 20
0.0
  9
$PLIMMAX
 10
420.0
 20
297.0
  9
$UNITMODE
 70
0
  9
$VISRETAIN
 70
1
  9
$PLINEGEN
 70
0
  9
$PSLTSCALE
 70
1
  0
ENDSEC
  0
SECTION
  2
TABLES
  0
TABLE
  2
VPORT
 70
1
  0
VPORT
  5
216
  2
*Active
 70
0
 10
0.0
 20
0.0
 11
1.0
 21
1.0
 12
1800.0
 22
900.0
 13
0.0
 23
0.0
 14
0.5
 24
0.5
 15
0.5
 25
0.5
 16
0.0
 26
0.0
 36
1.0
 17
0.0
 27
0.0
 37
0.0
 40
2300.0
 41
1.34
 42
50.0
 43
0.0
 44
0.0
 50
0.0
 51
0.0
 71
0
 72
1000
 73
1
 74
3
 75
0
 76
0
 77
0
 78
0
  0
ENDTAB
  0
TABLE
  2
LTYPE
 70
3
  0
LTYPE
  5
24
  2
ByBlock
 70
0
  3

 72
65
 73
0
 40
0.0
  0
LTYPE
  5
25
  2
ByLayer
 70
0
  3

 72
65
 73
0
 40
0.0
  0
LTYPE
  5
26
  2
Continuous
 70
0
  3

 72
65
 73
0
 40
0.0
  0
ENDTAB
  0
TABLE
  2
LAYER
 70
5
  0
LAYER
  5
27
  2
0
 70
0
 62
7
  6
Continuous
  0
LAYER
  5
28
  2
Defpoints
 70
0
 62
7
  6
Continuous
  0
LAYER
  5
2D
  2
1
 70
0
 62
1
  6
Continuous
  0
LAYER
  5
2E
  2
8
 70
0
 62
4
  6
Continuous
  0
LAYER
  5
2F
  2
11
 70
0
 62
3
  6
Continuous
  0
ENDTAB
  0
TABLE
  2
STYLE
 70
1
  0
STYLE
  5
29
  2
Standard
 70
0
 40
0.0
 41
1.0
 50
0.0
 71
0
 42
2.5
  3
txt
  4

  0
ENDTAB
  0
TABLE
  2
VIEW
 70
0
  0
ENDTAB
  0
TABLE
  2
UCS
 70
0
  0
ENDTAB
  0
TABLE
  2
APPID
 70
1
  0
APPID
  5
2A
  2
ACAD
 70
0
  0
ENDTAB
  0
TABLE
  2
DIMSTYLE
 70
1
  0
DIMSTYLE
105
2B
  2
Standard
 70
0
  3

  4

  5

  6

  7

 40
1.0
 41
2.5
 42
0.625
 43
3.75
 44
1.25
 45
0.0
 46
0.0
 47
0.0
 48
0.0
140
2.5
141
2.5
142
0.0
143
0.03937007874
144
1.0
145
0.0
146
1.0
147
0.625
 71
0
 72
0
 73
0
 74
0
 75
0
 76
0
 77
1
 78
8
170
0
171
3
172
1
173
0
174
0
175
0
176
0
177
0
178
0
  0
ENDTAB
  0
ENDSEC
  0
SECTION
  2
BLOCKS
  0
BLOCK
  5
18
  8
0
  2
$Model_Space
 70
0
 10
0.0
 20
0.0
 30
0.0
  3
$Model_Space
  1

  0
ENDBLK
  5
19
  8
0
  0
BLOCK
  5
1C
  8
0
  2
$Paper_Space
 70
0
 10
0.0
 20
0.0
 30
0.0
  3
$Paper_Space
  1

  0
ENDBLK
  5
1D
  8
0
  0
BLOCK
  5
31
  8
0
  2
F15-PATCH-reflY0
 70
0
 10
0.0
 20
0.0
 30
0.0
  3
F15-PATCH-reflY0
  1

  0
POLYLINE
  5
33
  8
1
 66
1
 70
0
  0
VERTEX
  5
35
  8
1
 10
-162.61665759432577
 20
-50.45132053150337
 30
0.0
 70
0
  0
VERTEX
  5
36
  8
1
 10
161.09652719436826
 20
36.88737642411138
 30
0.0
 70
0
  0
VERTEX
  5
37
  8
1
 10
162.61665759432577
 20
50.451320531503484
 30
0.0
 70
0
  0
VERTEX
  5
38
  8
1
 10
-150.2987028550519
 20
2.3527911258569247
 30
0.0
 70
0
  0
VERTEX
  5
39
  8
1
 10
-162.61665759432577
 20
-50.45132053150337
 30
0.0
 70
0
  0
SEQEND
  5
34
  8
1
  0
ENDBLK
  5
32
  8
0
  0
BLOCK
  5
3D
  8
0
  2
F15-PATCH-reflY1
 70
0
 10
0.0
 20
0.0
 30
0.0
  3
F15-PATCH-reflY1
  1

  0
POLYLINE
  5
3F
  8
1
 66
1
 70
0
  0
VERTEX
  5
41
  8
1
 10
-178.2299548252236
 20
-78.96695026238962
 30
0.0
 70
0
  0
VERTEX
  5
42
  8
1
 10
168.8608926228633
 20
50.13194176341858
 30
0.0
 70
0
  0
VERTEX
  5
43
  8
1
 10
178.2299548252236
 20
78.96695026238967
 30
0.0
 70
0
  0
VERTEX
  5
44
  8
1
 10
-151.1696233235925
 20
28.33461545771428
 30
0.0
 70
0
  0
VERTEX
  5
45
  8
1
 10
-178.2299548252236
 20
-78.96695026238962
 30
0.0
 70
0
  0
SEQEND
  5
40
  8
1
  0
ENDBLK
  5
3E
  8
0
  0
BLOCK
  5
49
  8
0
  2
F15-PATCH-reflY2
 70
0
 10
0.0
 20
0.0
 30
0.0
  3
F15-PATCH-reflY2
  1

  0
POLYLINE
  5
4B
  8
1
 66
1
 70
0
  0
VERTEX
  5
4D
  8
1
 10
-153.27087017515498
 20
-140.8217938921032
 30
0.0
 70
0
  0
VERTEX
  5
4E
  8
1
 10
153.270870175155
 20
-107.33800487719714
 30
0.0
 70
0
  0
VERTEX
  5
4F
  8
1
 10
50.25638342384161
 20
107.34279281713589
 30
0.0
 70
0
  0
VERTEX
  5
50
  8
1
 10
-83.31186086243247
 20
140.82179389210296
 30
0.0
 70
0
  0
VERTEX
  5
51
  8
1
 10
-104.38461271305431
 20
56.3036025524998
 30
0.0
 70
0
  0
VERTEX
  5
52
  8
1
 10
-80.66088220560295
 20
50.38861220508579
 30
0.0
 70
0
  0
VERTEX
  5
53
  8
1
 10
-78.65891725108293
 20
49.776550095284165
 30
0.0
 70
0
  0
VERTEX
  5
54
  8
1
 10
-76.73189718181476
 20
48.95857860554929
 30
0.0
 70
0
  0
VERTEX
  5
55
  8
1
 10
-74.9009348329322
 20
47.943659602694424
 30
0.0
 70
0
  0
VERTEX
  5
56
  8
1
 10
-73.18609061108316
 20
46.74291275170049
 30
0.0
 70
0
  0
VERTEX
  5
57
  8
1
 10
-71.60615270841635
 20
45.369493686338956
 30
0.0
 70
0
  0
VERTEX
  5
58
  8
1
 10
-70.17843125521676
 20
43.83844987329667
 30
0.0
 70
0
  0
VERTEX
  5
59
  8
1
 10
-68.9185686664955
 20
42.166555748980954
 30
0.0
 70
0
  0
VERTEX
  5
5A
  8
1
 10
-67.84036826041779
 20
40.372128935283854
 30
0.0
 70
0
  0
VERTEX
  5
5B
  8
1
 10
-66.95564302626059
 20
38.474829547884156
 30
0.0
 70
0
  0
VERTEX
  5
5C
  8
1
 10
-66.27408619882993
 20
36.495444795905996
 30
0.0
 70
0
  0
VERTEX
  5
5D
  8
1
 10
-65.80316505735215
 20
34.455661232904504
 30
0.0
 70
0
  0
VERTEX
  5
5E
  8
1
 10
-65.5480391123998
 20
32.37782715444837
 30
0.0
 70
0
  0
VERTEX
  5
5F
  8
1
 10
-65.5115035772144
 20
30.284707745516016
 30
0.0
 70
0
  0
VERTEX
  5
60
  8
1
 10
-65.69395874276489
 20
28.199235660364593
 30
0.0
 70
0
  0
VERTEX
  5
61
  8
1
 10
-66.09340559207669
 20
26.144259767572976
 30
0.0
 70
0
  0
VERTEX
  5
62
  8
1
 10
-78.18950037205951
 20
-22.370526546227666
 30
0.0
 70
0
  0
VERTEX
  5
63
  8
1
 10
-78.80156248186125
 20
-24.37249150074763
 30
0.0
 70
0
  0
VERTEX
  5
64
  8
1
 10
-79.61953397159607
 20
-26.29951157001574
 30
0.0
 70
0
  0
VERTEX
  5
65
  8
1
 10
-80.63445297445088
 20
-28.13047391889836
 30
0.0
 70
0
  0
VERTEX
  5
66
  8
1
 10
-81.83519982544499
 20
-29.845318140747395
 30
0.0
 70
0
  0
VERTEX
  5
67
  8
1
 10
-83.2086188908064
 20
-31.425256043414265
 30
0.0
 70
0
  0
VERTEX
  5
68
  8
1
 10
-84.73966270384864
 20
-32.8529774966139
 30
0.0
 70
0
  0
VERTEX
  5
69
  8
1
 10
-86.41155682816452
 20
-34.112840085335165
 30
0.0
 70
0
  0
VERTEX
  5
6A
  8
1
 10
-88.20598364186162
 20
-35.19104049141288
 30
0.0
 70
0
  0
VERTEX
  5
6B
  8
1
 10
-90.1032830292612
 20
-36.07576572556991
 30
0.0
 70
0
  0
VERTEX
  5
6C
  8
1
 10
-92.08266778123948
 20
-36.75732255300068
 30
0.0
 70
0
  0
VERTEX
  5
6D
  8
1
 10
-94.12245134424086
 20
-37.22824369447835
 30
0.0
 70
0
  0
VERTEX
  5
6E
  8
1
 10
-96.20028542269694
 20
-37.48336963943075
 30
0.0
 70
0
  0
VERTEX
  5
6F
  8
1
 10
-98.29340483162946
 20
-37.51990517461627
 30
0.0
 70
0
  0
VERTEX
  5
70
  8
1
 10
-100.37887691678077
 20
-37.337450009065606
 30
0.0
 70
0
  0
VERTEX
  5
71
  8
1
 10
-102.4338528095729
 20
-36.93800315975409
 30
0.0
 70
0
  0
VERTEX
  5
72
  8
1
 10
-126.1575833170233
 20
-31.02301281234122
 30
0.0
 70
0
  0
VERTEX
  5
73
  8
1
 10
-153.27087017515498
 20
-140.8217938921032
 30
0.0
 70
0
  0
SEQEND
  5
4C
  8
1
  0
ENDBLK
  5
4A
  8
0
  0
BLOCK
  5
77
  8
0
  2
F15-PATCH-reflY3
 70
0
 10
0.0
 20
0.0
 30
0.0
  3
F15-PATCH-reflY3
  1

  0
POLYLINE
  5
79
  8
1
 66
1
 70
0
  0
VERTEX
  5
7B
  8
1
 10
-102.7328065658844
 20
-75.3838990850956
 30
0.0
 70
0
  0
VERTEX
  5
7C
  8
1
 10
109.67557276945263
 20
-18.08921880729571
 30
0.0
 70
0
  0
VERTEX
  5
7D
  8
1
 10
106.36810713523482
 20
-5.827462363847417
 30
0.0
 70
0
  0
VERTEX
  5
7E
  8
1
 10
98.09117385316404
 20
15.627617167257881
 30
0.0
 70
0
  0
VERTEX
  5
7F
  8
1
 10
85.53434955993134
 20
34.89298054070048
 30
0.0
 70
0
  0
VERTEX
  5
80
  8
1
 10
69.24642773147889
 20
51.12663893159083
 30
0.0
 70
0
  0
VERTEX
  5
81
  8
1
 10
49.93926870983023
 20
63.6191035705113
 30
0.0
 70
0
  0
VERTEX
  5
82
  8
1
 10
28.456687990259525
 20
71.82439380724497
 30
0.0
 70
0
  0
VERTEX
  5
83
  8
1
 10
5.737577435071671
 20
75.38389908509566
 30
0.0
 70
0
  0
VERTEX
  5
84
  8
1
 10
-17.225128806084285
 20
74.14205194301985
 30
0.0
 70
0
  0
VERTEX
  5
85
  8
1
 10
-39.42785028317985
 20
68.15312706017005
 30
0.0
 70
0
  0
VERTEX
  5
86
  8
1
 10
-59.90022152718802
 20
57.67886919197673
 30
0.0
 70
0
  0
VERTEX
  5
87
  8
1
 10
-77.74750167740922
 20
43.17705366834571
 30
0.0
 70
0
  0
VERTEX
  5
88
  8
1
 10
-92.18967895052674
 20
25.281479415090985
 30
0.0
 70
0
  0
VERTEX
  5
89
  8
1
 10
-102.59556089845
 20
4.774268899572519
 30
0.0
 70
0
  0
VERTEX
  5
8A
  8
1
 10
-108.51036054709311
 20
-17.448314374167637
 30
0.0
 70
0
  0
VERTEX
  5
8B
  8
1
 10
-109.67557276945263
 20
-40.41503688128137
 30
0.0
 70
0
  0
VERTEX
  5
8C
  8
1
 10
-106.04027220010448
 20
-63.12214264164561
 30
0.0
 70
0
  0
VERTEX
  5
8D
  8
1
 10
-102.7328065658844
 20
-75.3838990850956
 30
0.0
 70
0
  0
SEQEND
  5
7A
  8
1
  0
ENDBLK
  5
78
  8
0
  0
BLOCK
  5
91
  8
0
  2
F15-PATCH-reflY4
 70
0
 10
0.0
 20
0.0
 30
0.0
  3
F15-PATCH-reflY4
  1

  0
POLYLINE
  5
93
  8
1
 66
1
 70
0
  0
VERTEX
  5
95
  8
1
 10
-210.94959754855427
 20
-287.5523371991735
 30
0.0
 70
0
  0
VERTEX
  5
96
  8
1
 10
-77.33987604035076
 20
-320.86498222324826
 30
0.0
 70
0
  0
VERTEX
  5
97
  8
1
 10
14.713488879770125
 20
48.34089866617842
 30
0.0
 70
0
  0
VERTEX
  5
98
  8
1
 10
19.775864926773238
 20
65.37991925050846
 30
0.0
 70
0
  0
VERTEX
  5
99
  8
1
 10
26.331106957386282
 20
81.90216714946519
 30
0.0
 70
0
  0
VERTEX
  5
9A
  8
1
 10
34.32743579102919
 20
97.77713483128218
 30
0.0
 70
0
  0
VERTEX
  5
9B
  8
1
 10
43.701689251123526
 20
112.87942756385746
 30
0.0
 70
0
  0
VERTEX
  5
9C
  8
1
 10
54.37982107660923
 20
127.08975389480565
 30
0.0
 70
0
  0
VERTEX
  5
9D
  8
1
 10
66.27748580572211
 20
140.29586792233476
 30
0.0
 70
0
  0
VERTEX
  5
9E
  8
1
 10
79.30070501209616
 20
152.39345591404708
 30
0.0
 70
0
  0
VERTEX
  5
9F
  8
1
 10
93.3466096306579
 20
163.28696027034812
 30
0.0
 70
0
  0
VERTEX
  5
A0
  8
1
 10
108.30425250976123
 20
172.89033432406995
 30
0.0
 70
0
  0
VERTEX
  5
A1
  8
1
 10
124.05548477129105
 20
181.12772201421967
 30
0.0
 70
0
  0
VERTEX
  5
A2
  8
1
 10
140.47588905646626
 20
187.93405706517706
 30
0.0
 70
0
  0
VERTEX
  5
A3
  8
1
 10
157.43576228571953
 20
193.25557693849714
 30
0.0
 70
0
  0
VERTEX
  5
A4
  8
1
 10
174.80114016994526
 20
197.0502474976538
 30
0.0
 70
0
  0
VERTEX
  5
A5
  8
1
 10
192.43485538059883
 20
199.28809503134653
 30
0.0
 70
0
  0
VERTEX
  5
A6
  8
1
 10
210.19762102027494
 20
199.9514430127556
 30
0.0
 70
0
  0
VERTEX
  5
A7
  8
1
 10
210.94959754855427
 20
305.49030078958185
 30
0.0
 70
0
  0
VERTEX
  5
A8
  8
1
 10
209.80279530770258
 20
305.47216880364067
 30
0.0
 70
0
  0
VERTEX
  5
A9
  8
1
 10
206.400542382587
 20
305.43942628619425
 30
0.0
 70
0
  0
VERTEX
  5
AA
  8
1
 10
200.80006946936624
 20
305.42455339780645
 30
0.0
 70
0
  0
VERTEX
  5
AB
  8
1
 10
193.05860726420008
 20
305.46003029904205
 30
0.0
 70
0
  0
VERTEX
  5
AC
  8
1
 10
183.23338646324737
 20
305.57833715046536
 30
0.0
 70
0
  0
VERTEX
  5
AD
  8
1
 10
171.3816377626673
 20
305.81195411264116
 30
0.0
 70
0
  0
VERTEX
  5
AE
  8
1
 10
157.56059185861898
 20
306.1933613461347
 30
0.0
 70
0
  0
VERTEX
  5
AF
  8
1
 10
141.8274794472619
 20
306.7550390115098
 30
0.0
 70
0
  0
VERTEX
  5
B0
  8
1
 10
124.23953122475473
 20
307.52946726932987
 30
0.0
 70
0
  0
VERTEX
  5
B1
  8
1
 10
104.85397788725697
 20
308.54912628016154
 30
0.0
 70
0
  0
VERTEX
  5
B2
  8
1
 10
83.8440750921834
 20
309.8279821436636
 30
0.0
 70
0
  0
VERTEX
  5
B3
  8
1
 10
61.84717834196954
 20
311.3059447158739
 30
0.0
 70
0
  0
VERTEX
  5
B4
  8
1
 10
39.616668100307834
 20
312.90440979192863
 30
0.0
 70
0
  0
VERTEX
  5
B5
  8
1
 10
17.905924830890285
 20
314.5447731669633
 30
0.0
 70
0
  0
VERTEX
  5
B6
  8
1
 10
-2.5316710025919065
 20
316.14843063611033
 30
0.0
 70
0
  0
VERTEX
  5
B7
  8
1
 10
-20.94273893644663
 20
317.6367779945049
 30
0.0
 70
0
  0
VERTEX
  5
B8
  8
1
 10
-36.57389850698257
 20
318.9312110372816
 30
0.0
 70
0
  0
VERTEX
  5
B9
  8
1
 10
-48.671769250507054
 20
319.9531255595757
 30
0.0
 70
0
  0
VERTEX
  5
BA
  8
1
 10
-56.482970703329556
 20
320.6239173565191
 30
0.0
 70
0
  0
VERTEX
  5
BB
  8
1
 10
-59.2541224017574
 20
320.8649822232487
 30
0.0
 70
0
  0
VERTEX
  5
BC
  8
1
 10
-210.94959754855427
 20
-287.5523371991735
 30
0.0
 70
0
  0
SEQEND
  5
94
  8
1
  0
LINE
  5
BD
  8
8
 10
79.90935609943779
 20
309.82723985614757
 30
0.0
 11
14.71348887977058
 21
48.34089866617842
 31
0.0
  0
ENDBLK
  5
92
  8
0
  0
BLOCK
  5
C1
  8
0
  2
F15-PATCH-reflY5
 70
0
 10
0.0
 20
0.0
 30
0.0
  3
F15-PATCH-reflY5
  1

  0
POLYLINE
  5
C3
  8
1
 66
1
 70
0
  0
VERTEX
  5
C5
  8
1
 10
-296.2319295816359
 20
-102.94939675445994
 30
0.0
 70
0
  0
VERTEX
  5
C6
  8
1
 10
-162.62220807343147
 20
-136.26204177853515
 30
0.0
 70
0
  0
VERTEX
  5
C7
  8
1
 10
-157.55983202642835
 20
-119.2230211942051
 30
0.0
 70
0
  0
VERTEX
  5
C8
  8
1
 10
-151.0045899958153
 20
-102.70077329524838
 30
0.0
 70
0
  0
VERTEX
  5
C9
  8
1
 10
-143.0082611621724
 20
-86.82580561343138
 30
0.0
 70
0
  0
VERTEX
  5
CA
  8
1
 10
-133.63400770207807
 20
-71.7235128808561
 30
0.0
 70
0
  0
VERTEX
  5
CB
  8
1
 10
-122.95587587659236
 20
-57.513186549907914
 30
0.0
 70
0
  0
VERTEX
  5
CC
  8
1
 10
-111.05821114747948
 20
-44.3070725223788
 30
0.0
 70
0
  0
VERTEX
  5
CD
  8
1
 10
-98.03499194110543
 20
-32.20948453066649
 30
0.0
 70
0
  0
VERTEX
  5
CE
  8
1
 10
-83.9890873225437
 20
-21.31598017436545
 30
0.0
 70
0
  0
VERTEX
  5
CF
  8
1
 10
-69.03144444344048
 20
-11.712606120643613
 30
0.0
 70
0
  0
VERTEX
  5
D0
  8
1
 10
-53.28021218191054
 20
-3.4752184304938964
 30
0.0
 70
0
  0
VERTEX
  5
D1
  8
1
 10
-36.85980789673533
 20
3.33111662046349
 30
0.0
 70
0
  0
VERTEX
  5
D2
  8
1
 10
-19.899934667482057
 20
8.652636493783575
 30
0.0
 70
0
  0
VERTEX
  5
D3
  8
1
 10
-2.5345567832563347
 20
12.447307052940232
 30
0.0
 70
0
  0
VERTEX
  5
D4
  8
1
 10
15.099158427397242
 20
14.685154586632962
 30
0.0
 70
0
  0
VERTEX
  5
D5
  8
1
 10
32.86192406707346
 20
15.348502568042022
 30
0.0
 70
0
  0
VERTEX
  5
D6
  8
1
 10
185.61998682411968
 20
14.260083760802445
 30
0.0
 70
0
  0
VERTEX
  5
D7
  8
1
 10
196.7661055021856
 20
14.746464961115635
 30
0.0
 70
0
  0
VERTEX
  5
D8
  8
1
 10
207.80562656653842
 20
16.359382481404282
 30
0.0
 70
0
  0
VERTEX
  5
D9
  8
1
 10
218.62498662068015
 20
19.082244262030144
 30
0.0
 70
0
  0
VERTEX
  5
DA
  8
1
 10
229.1128870612988
 20
22.887040262503433
 30
0.0
 70
0
  0
VERTEX
  5
DB
  8
1
 10
239.16143900542306
 20
27.73463060037102
 30
0.0
 70
0
  0
VERTEX
  5
DC
  8
1
 10
248.66727314182845
 20
33.57514818263189
 30
0.0
 70
0
  0
VERTEX
  5
DD
  8
1
 10
257.53260308967606
 20
40.34851168781506
 30
0.0
 70
0
  0
VERTEX
  5
DE
  8
1
 10
265.6662313256229
 20
47.98504362168069
 30
0.0
 70
0
  0
VERTEX
  5
DF
  8
1
 10
272.9844873314514
 20
56.40618708861575
 30
0.0
 70
0
  0
VERTEX
  5
E0
  8
1
 10
279.412088311502
 20
65.52531390530203
 30
0.0
 70
0
  0
VERTEX
  5
E1
  8
1
 10
284.8829136257234
 20
75.24861574360875
 30
0.0
 70
0
  0
VERTEX
  5
E2
  8
1
 10
289.34068497175895
 20
85.47606913553454
 30
0.0
 70
0
  0
VERTEX
  5
E3
  8
1
 10
292.7395453190438
 20
96.10246441320032
 30
0.0
 70
0
  0
VERTEX
  5
E4
  8
1
 10
295.04453063942765
 20
107.01848799921208
 30
0.0
 70
0
  0
VERTEX
  5
E5
  8
1
 10
296.23192958163577
 20
118.11184691387825
 30
0.0
 70
0
  0
VERTEX
  5
E6
  8
1
 10
215.7160595790308
 20
125.40123843021593
 30
0.0
 70
0
  0
VERTEX
  5
E7
  8
1
 10
194.49811051951656
 20
124.60164223950414
 30
0.0
 70
0
  0
VERTEX
  5
E8
  8
1
 10
173.25360443774275
 20
123.8238214279013
 30
0.0
 70
0
  0
VERTEX
  5
E9
  8
1
 10
151.983128578883
 20
123.09061928308938
 30
0.0
 70
0
  0
VERTEX
  5
EA
  8
1
 10
130.6872549770435
 20
122.42492517056189
 30
0.0
 70
0
  0
VERTEX
  5
EB
  8
1
 10
109.36655064875902
 20
121.84989493666444
 30
0.0
 70
0
  0
VERTEX
  5
EC
  8
1
 10
88.02158367391678
 20
121.38872181082479
 30
0.0
 70
0
  0
VERTEX
  5
ED
  8
1
 10
66.65292213240343
 20
121.06459902246752
 30
0.0
 70
0
  0
VERTEX
  5
EE
  8
1
 10
45.261134378080214
 20
120.90072501732766
 30
0.0
 70
0
  0
VERTEX
  5
EF
  8
1
 10
23.846814160888016
 20
120.9205046547354
 30
0.0
 70
0
  0
VERTEX
  5
F0
  8
1
 10
2.4105995147010617
 20
121.14748294932588
 30
0.0
 70
0
  0
VERTEX
  5
F1
  8
1
 10
-19.046814708088505
 20
121.60521945660048
 30
0.0
 70
0
  0
VERTEX
  5
F2
  8
1
 10
-40.49588720515089
 20
122.30788088886766
 30
0.0
 70
0
  0
VERTEX
  5
F3
  8
1
 10
-61.91149958890753
 20
123.23825338885308
 30
0.0
 70
0
  0
VERTEX
  5
F4
  8
1
 10
-83.2942461785691
 20
124.3727758873647
 30
0.0
 70
0
  0
VERTEX
  5
F5
  8
1
 10
-104.64474644922632
 20
125.68792041064762
 30
0.0
 70
0
  0
VERTEX
  5
F6
  8
1
 10
-125.96365871936155
 20
127.16033805909137
 30
0.0
 70
0
  0
VERTEX
  5
F7
  8
1
 10
-147.25165164496548
 20
128.76677285942105
 30
0.0
 70
0
  0
VERTEX
  5
F8
  8
1
 10
-168.50939388207257
 20
130.48396884322938
 30
0.0
 70
0
  0
VERTEX
  5
F9
  8
1
 10
-192.79380342708464
 20
132.53938860262406
 30
0.0
 70
0
  0
VERTEX
  5
FA
  8
1
 10
-236.589819354959
 20
136.26204177853515
 30
0.0
 70
0
  0
VERTEX
  5
FB
  8
1
 10
-296.2319295816359
 20
-102.94939675445994
 30
0.0
 70
0
  0
SEQEND
  5
C4
  8
1
  0
LINE
  5
FC
  8
8
 10
-97.4263408537638
 20
125.224299411434
 30
0.0
 11
-162.622208073431
 21
-136.26204177853515
 31
0.0
  0
ENDBLK
  5
C2
  8
0
  0
BLOCK
  5
100
  8
0
  2
F15-PATCH-reflY6
 70
0
 10
0.0
 20
0.0
 30
0.0
  3
F15-PATCH-reflY6
  1

  0
POLYLINE
  5
102
  8
1
 66
1
 70
0
  0
VERTEX
  5
104
  8
1
 10
1.018468352495347
 20
-80.69980836589002
 30
0.0
 70
0
  0
VERTEX
  5
105
  8
1
 10
53.46038279309437
 20
80.69980836589002
 30
0.0
 70
0
  0
VERTEX
  5
106
  8
1
 10
-53.460382793094595
 20
26.220957220298715
 30
0.0
 70
0
  0
VERTEX
  5
107
  8
1
 10
1.018468352495347
 20
-80.69980836589002
 30
0.0
 70
0
  0
SEQEND
  5
103
  8
1
  0
ENDBLK
  5
101
  8
0
  0
BLOCK
  5
10B
  8
0
  2
F15-PATCH-reflY7
 70
0
 10
0.0
 20
0.0
 30
0.0
  3
F15-PATCH-reflY7
  1

  0
POLYLINE
  5
10D
  8
1
 66
1
 70
0
  0
VERTEX
  5
10F
  8
1
 10
-109.89605712035882
 20
50.02688119198956
 30
0.0
 70
0
  0
VERTEX
  5
110
  8
1
 10
-106.7561093092745
 20
27.88335850436215
 30
0.0
 70
0
  0
VERTEX
  5
111
  8
1
 10
-99.20219815209248
 20
6.832627032435084
 30
0.0
 70
0
  0
VERTEX
  5
112
  8
1
 10
-87.54659039292642
 20
-12.255109267039188
 30
0.0
 70
0
  0
VERTEX
  5
113
  8
1
 10
-72.27111042842103
 20
-28.590793554138145
 30
0.0
 70
0
  0
VERTEX
  5
114
  8
1
 10
-54.00722244898475
 20
-41.499134467996555
 30
0.0
 70
0
  0
VERTEX
  5
115
  8
1
 10
-33.50992670753499
 20
-50.44652160398982
 30
0.0
 70
0
  0
VERTEX
  5
116
  8
1
 10
-11.62654900273833
 20
-55.06308412419867
 30
0.0
 70
0
  0
VERTEX
  5
117
  8
1
 10
10.738286429841992
 20
-55.157980633061015
 30
0.0
 70
0
  0
VERTEX
  5
118
  8
1
 10
32.66005265338504
 20
-50.72728825893773
 30
0.0
 70
0
  0
VERTEX
  5
119
  8
1
 10
53.232538511656685
 20
-41.954164819420384
 30
0.0
 70
0
  0
VERTEX
  5
11A
  8
1
 10
71.60530996544048
 20
-29.20127736673703
 30
0.0
 70
0
  0
VERTEX
  5
11B
  8
1
 10
87.01886569114004
 20
-12.995810105206147
 30
0.0
 70
0
  0
VERTEX
  5
11C
  8
1
 10
98.83603366468378
 20
5.992328570262998
 30
0.0
 70
0
  0
VERTEX
  5
11D
  8
1
 10
106.56831084559963
 20
26.97819902805577
 30
0.0
 70
0
  0
VERTEX
  5
11E
  8
1
 10
109.89605712035882
 20
49.094278563195985
 30
0.0
 70
0
  0
VERTEX
  5
11F
  8
1
 10
20.002567197413555
 20
55.157980633061015
 30
0.0
 70
0
  0
VERTEX
  5
120
  8
1
 10
-109.89605712035882
 20
50.02688119198956
 30
0.0
 70
0
  0
SEQEND
  5
10E
  8
1
  0
ENDBLK
  5
10C
  8
0
  0
BLOCK
  5
124
  8
0
  2
F15-PATCH-reflY8
 70
0
 10
0.0
 20
0.0
 30
0.0
  3
F15-PATCH-reflY8
  1

  0
POLYLINE
  5
126
  8
1
 66
1
 70
0
  0
VERTEX
  5
128
  8
1
 10
1.018468352497166
 20
-80.69980836589048
 30
0.0
 70
0
  0
VERTEX
  5
129
  8
1
 10
53.46038279309414
 20
80.69980836589048
 30
0.0
 70
0
  0
VERTEX
  5
12A
  8
1
 10
-53.46038279309414
 20
26.220957220300534
 30
0.0
 70
0
  0
VERTEX
  5
12B
  8
1
 10
1.018468352497166
 20
-80.69980836589048
 30
0.0
 70
0
  0
SEQEND
  5
127
  8
1
  0
ENDBLK
  5
125
  8
0
  0
BLOCK
  5
12F
  8
0
  2
F15-PATCH-reflY9
 70
0
 10
0.0
 20
0.0
 30
0.0
  3
F15-PATCH-reflY9
  1

  0
POLYLINE
  5
131
  8
1
 66
1
 70
0
  0
VERTEX
  5
133
  8
1
 10
-109.89324169032625
 20
48.30115279109077
 30
0.0
 70
0
  0
VERTEX
  5
134
  8
1
 10
-106.4268614638836
 20
26.19741613265205
 30
0.0
 70
0
  0
VERTEX
  5
135
  8
1
 10
-98.55961771257944
 20
5.252310692539595
 30
0.0
 70
0
  0
VERTEX
  5
136
  8
1
 10
-86.61698739098665
 20
-13.667640341795504
 30
0.0
 70
0
  0
VERTEX
  5
137
  8
1
 10
-71.09305090000817
 20
-29.779696758155296
 30
0.0
 70
0
  0
VERTEX
  5
138
  8
1
 10
-52.63005141041458
 20
-42.417284185632525
 30
0.0
 70
0
  0
VERTEX
  5
139
  8
1
 10
-31.991824521571743
 20
-51.05757104571558
 30
0.0
 70
0
  0
VERTEX
  5
13A
  8
1
 10
-10.032197501058363
 20
-55.3430986981557
 30
0.0
 70
0
  0
VERTEX
  5
13B
  8
1
 10
12.340334534904287
 20
-55.096569917501256
 30
0.0
 70
0
  0
VERTEX
  5
13C
  8
1
 10
34.2001941130211
 20
-50.328183883958445
 30
0.0
 70
0
  0
VERTEX
  5
13D
  8
1
 10
54.643013611317656
 20
-41.235214231532154
 30
0.0
 70
0
  0
VERTEX
  5
13E
  8
1
 10
72.82304999150665
 20
-28.193847610089506
 30
0.0
 70
0
  0
VERTEX
  5
13F
  8
1
 10
87.98817416466045
 20
-11.743620409448795
 30
0.0
 70
0
  0
VERTEX
  5
140
  8
1
 10
99.51098743974944
 20
7.434902483811584
 30
0.0
 70
0
  0
VERTEX
  5
141
  8
1
 10
106.91477773164706
 20
28.54828344123962
 30
0.0
 70
0
  0
VERTEX
  5
142
  8
1
 10
109.89324169032625
 20
50.72303752300377
 30
0.0
 70
0
  0
VERTEX
  5
143
  8
1
 10
19.915796410429266
 20
55.3430986981557
 30
0.0
 70
0
  0
VERTEX
  5
144
  8
1
 10
-109.89324169032625
 20
48.30115279109077
 30
0.0
 70
0
  0
SEQEND
  5
132
  8
1
  0
ENDBLK
  5
130
  8
0
  0
BLOCK
  5
148
  8
0
  2
F15-PATCH-reflY10
 70
0
 10
0.0
 20
0.0
 30
0.0
  3
F15-PATCH-reflY10
  1

  0
POLYLINE
  5
14A
  8
1
 66
1
 70
0
  0
VERTEX
  5
14C
  8
1
 10
-109.84447981302537
 20
46.03660660312926
 30
0.0
 70
0
  0
VERTEX
  5
14D
  8
1
 10
-105.95756276364227
 20
24.04117954765752
 30
0.0
 70
0
  0
VERTEX
  5
14E
  8
1
 10
-97.70754098384805
 20
3.2843956894994335
 30
0.0
 70
0
  0
VERTEX
  5
14F
  8
1
 10
-85.43457919132607
 20
-15.377901713035499
 30
0.0
 70
0
  0
VERTEX
  5
150
  8
1
 10
-69.64471587842672
 20
-31.176229221392987
 30
0.0
 70
0
  0
VERTEX
  5
151
  8
1
 10
-50.988998344110314
 20
-43.459190541090265
 30
0.0
 70
0
  0
VERTEX
  5
152
  8
1
 10
-30.236638725949433
 20
-51.72033487949102
 30
0.0
 70
0
  0
VERTEX
  5
153
  8
1
 10
-8.24329786208591
 20
-55.61903891381826
 30
0.0
 70
0
  0
VERTEX
  5
154
  8
1
 10
14.084195297742554
 20
-54.994551364551626
 30
0.0
 70
0
  0
VERTEX
  5
155
  8
1
 10
35.82523404363474
 20
-49.872621088672076
 30
0.0
 70
0
  0
VERTEX
  5
156
  8
1
 10
56.08339234126652
 20
-40.46443540335213
 30
0.0
 70
0
  0
VERTEX
  5
157
  8
1
 10
74.02338625054108
 20
-27.157912415111696
 30
0.0
 70
0
  0
VERTEX
  5
158
  8
1
 10
88.90551433474775
 20
-10.501706388929506
 30
0.0
 70
0
  0
VERTEX
  5
159
  8
1
 10
100.11615701403343
 20
8.817414352417472
 30
0.0
 70
0
  0
VERTEX
  5
15A
  8
1
 10
107.19307731450317
 20
30.00288424482642
 30
0.0
 70
0
  0
VERTEX
  5
15B
  8
1
 10
109.84447981302537
 20
52.18118445679511
 30
0.0
 70
0
  0
VERTEX
  5
15C
  8
1
 10
19.801756242318334
 20
55.61903891381826
 30
0.0
 70
0
  0
VERTEX
  5
15D
  8
1
 10
-109.84447981302537
 20
46.03660660312926
 30
0.0
 70
0
  0
SEQEND
  5
14B
  8
1
  0
ENDBLK
  5
149
  8
0
  0
BLOCK
  5
161
  8
0
  2
F15-PATCH-reflY11
 70
0
 10
0.0
 20
0.0
 30
0.0
  3
F15-PATCH-reflY11
  1

  0
POLYLINE
  5
163
  8
1
 66
1
 70
0
  0
VERTEX
  5
165
  8
1
 10
-575.9006577771861
 20
89.15411067450577
 30
0.0
 70
0
  0
VERTEX
  5
166
  8
1
 10
-520.3617636173822
 20
87.49642779279202
 30
0.0
 70
0
  0
VERTEX
  5
167
  8
1
 10
-463.13316768993354
 20
87.03523497186416
 30
0.0
 70
0
  0
VERTEX
  5
168
  8
1
 10
-404.5774097119229
 20
87.33722281558312
 30
0.0
 70
0
  0
VERTEX
  5
169
  8
1
 10
-345.0570294004374
 20
87.96908192780757
 30
0.0
 70
0
  0
VERTEX
  5
16A
  8
1
 10
-284.9345664725597
 20
88.49750291239798
 30
0.0
 70
0
  0
VERTEX
  5
16B
  8
1
 10
-224.57256064537614
 20
88.48917637321392
 30
0.0
 70
0
  0
VERTEX
  5
16C
  8
1
 10
-164.33355163597207
 20
87.51079291411497
 30
0.0
 70
0
  0
VERTEX
  5
16D
  8
1
 10
-104.58007916143106
 20
85.12904313896115
 30
0.0
 70
0
  0
VERTEX
  5
16E
  8
1
 10
-45.67468293883758
 20
80.91061765161248
 30
0.0
 70
0
  0
VERTEX
  5
16F
  8
1
 10
12.02009731472208
 20
74.42220705592763
 30
0.0
 70
0
  0
VERTEX
  5
170
  8
1
 10
68.14172188216435
 20
65.23050195576707
 30
0.0
 70
0
  0
VERTEX
  5
171
  8
1
 10
122.32765104640293
 20
52.90219295499128
 30
0.0
 70
0
  0
VERTEX
  5
172
  8
1
 10
174.21534509035428
 20
37.00397065745892
 30
0.0
 70
0
  0
VERTEX
  5
173
  8
1
 10
223.4422642969339
 20
17.102525667030022
 30
0.0
 70
0
  0
VERTEX
  5
174
  8
1
 10
269.6458689490564
 20
-7.235451412434941
 30
0.0
 70
0
  0
VERTEX
  5
175
  8
1
 10
312.46361932963555
 20
-36.44326997707731
 30
0.0
 70
0
  0
VERTEX
  5
176
  8
1
 10
351.53297572158954
 20
-70.9542394230366
 30
0.0
 70
0
  0
VERTEX
  5
177
  8
1
 10
386.49139485429896
 20
-111.20166737570617
 30
0.0
 70
0
  0
VERTEX
  5
178
  8
1
 10
416.2877028999874
 20
-157.27571250948267
 30
0.0
 70
0
  0
VERTEX
  5
179
  8
1
 10
437.257696414591
 20
-207.96444435616922
 30
0.0
 70
0
  0
VERTEX
  5
17A
  8
1
 10
440.7750112175345
 20
-220.16766100494715
 30
0.0
 70
0
  0
VERTEX
  5
17B
  8
1
 10
666.2219921152473
 20
-155.18741636839104
 30
0.0
 70
0
  0
VERTEX
  5
17C
  8
1
 10
669.5239912316265
 20
-141.01867911265208
 30
0.0
 70
0
  0
VERTEX
  5
17D
  8
1
 10
643.9618795591268
 20
-125.12911089584259
 30
0.0
 70
0
  0
VERTEX
  5
17E
  8
1
 10
618.4113068505976
 20
-109.1583142639629
 30
0.0
 70
0
  0
VERTEX
  5
17F
  8
1
 10
592.9003696989948
 20
-93.06847598468903
 30
0.0
 70
0
  0
VERTEX
  5
180
  8
1
 10
567.4573806098197
 20
-76.8214130325805
 30
0.0
 70
0
  0
VERTEX
  5
181
  8
1
 10
542.1106767045458
 20
-60.378904333979335
 30
0.0
 70
0
  0
VERTEX
  5
182
  8
1
 10
516.8885981230433
 20
-43.70272451716437
 30
0.0
 70
0
  0
VERTEX
  5
183
  8
1
 10
491.8196814125977
 20
-26.754403930734952
 30
0.0
 70
0
  0
VERTEX
  5
184
  8
1
 10
466.93267629759157
 20
-9.495272592390847
 30
0.0
 70
0
  0
VERTEX
  5
185
  8
1
 10
442.2564687814711
 20
8.113391266873805
 30
0.0
 70
0
  0
VERTEX
  5
186
  8
1
 10
417.821292121007
 20
26.109600914651764
 30
0.0
 70
0
  0
VERTEX
  5
187
  8
1
 10
393.6791821179222
 20
44.4868277107762
 30
0.0
 70
0
  0
VERTEX
  5
188
  8
1
 10
369.8348807379725
 20
63.19507956269308
 30
0.0
 70
0
  0
VERTEX
  5
189
  8
1
 10
346.2587601098903
 20
82.19590291108943
 30
0.0
 70
0
  0
VERTEX
  5
18A
  8
1
 10
322.9219509218765
 20
101.45064330418745
 30
0.0
 70
0
  0
VERTEX
  5
18B
  8
1
 10
299.79557846568423
 20
120.92072703178928
 30
0.0
 70
0
  0
VERTEX
  5
18C
  8
1
 10
276.8509799729982
 20
140.56795729124542
 30
0.0
 70
0
  0
VERTEX
  5
18D
  8
1
 10
254.0595782786986
 20
160.35425729731287
 30
0.0
 70
0
  0
VERTEX
  5
18E
  8
1
 10
231.39279621766764
 20
180.24155026474864
 30
0.0
 70
0
  0
VERTEX
  5
18F
  8
1
 10
208.82217750374912
 20
200.19190061871768
 30
0.0
 70
0
  0
VERTEX
  5
190
  8
1
 10
186.31955246738562
 20
220.16766100494715
 30
0.0
 70
0
  0
VERTEX
  5
191
  8
1
 10
150.60220741039484
 20
216.52399027507454
 30
0.0
 70
0
  0
VERTEX
  5
192
  8
1
 10
114.84678428471398
 20
212.94422823665764
 30
0.0
 70
0
  0
VERTEX
  5
193
  8
1
 10
79.05178400679324
 20
209.48001350527784
 30
0.0
 70
0
  0
VERTEX
  5
194
  8
1
 10
43.21565654128153
 20
206.18335049037069
 30
0.0
 70
0
  0
VERTEX
  5
195
  8
1
 10
7.336843736733499
 20
203.10632873498707
 30
0.0
 70
0
  0
VERTEX
  5
196
  8
1
 10
-28.58621261632743
 20
200.30103869267214
 30
0.0
 70
0
  0
VERTEX
  5
197
  8
1
 10
-64.55507083827615
 20
197.8197836891968
 30
0.0
 70
0
  0
VERTEX
  5
198
  8
1
 10
-100.57126080604303
 20
195.71514633906827
 30
0.0
 70
0
  0
VERTEX
  5
199
  8
1
 10
-136.6362605583463
 20
194.0398041946337
 30
0.0
 70
0
  0
VERTEX
  5
19A
  8
1
 10
-172.7503711034442
 20
192.8465900660617
 30
0.0
 70
0
  0
VERTEX
  5
19B
  8
1
 10
-208.8693729018505
 20
192.16350790666593
 30
0.0
 70
0
  0
VERTEX
  5
19C
  8
1
 10
-244.96507912577272
 20
191.94940529477753
 30
0.0
 70
0
  0
VERTEX
  5
19D
  8
1
 10
-281.03517774644206
 20
192.15138368160933
 30
0.0
 70
0
  0
VERTEX
  5
19E
  8
1
 10
-317.07858770279927
 20
192.71662814863066
 30
0.0
 70
0
  0
VERTEX
  5
19F
  8
1
 10
-353.0939041116717
 20
193.59251311735534
 30
0.0
 70
0
  0
VERTEX
  5
1A0
  8
1
 10
-389.0797601024824
 20
194.72668262132765
 30
0.0
 70
0
  0
VERTEX
  5
1A1
  8
1
 10
-425.0347898573891
 20
196.06679690949932
 30
0.0
 70
0
  0
VERTEX
  5
1A2
  8
1
 10
-460.9576323932297
 20
197.56062887980352
 30
0.0
 70
0
  0
VERTEX
  5
1A3
  8
1
 10
-496.84690248980587
 20
199.15630022538335
 30
0.0
 70
0
  0
VERTEX
  5
1A4
  8
1
 10
-532.7011975250625
 20
200.80199329708012
 30
0.0
 70
0
  0
VERTEX
  5
1A5
  8
1
 10
-669.5239912316265
 20
188.16581186179883
 30
0.0
 70
0
  0
VERTEX
  5
1A6
  8
1
 10
-668.2156245835158
 20
178.45992387171555
 30
0.0
 70
0
  0
VERTEX
  5
1A7
  8
1
 10
-666.0491519321376
 20
168.90887779221384
 30
0.0
 70
0
  0
VERTEX
  5
1A8
  8
1
 10
-663.0417467960779
 20
159.58838428009085
 30
0.0
 70
0
  0
VERTEX
  5
1A9
  8
1
 10
-659.2172487229846
 20
150.57232641365954
 30
0.0
 70
0
  0
VERTEX
  5
1AA
  8
1
 10
-654.6059743146852
 20
141.93217402534492
 30
0.0
 70
0
  0
VERTEX
  5
1AB
  8
1
 10
-649.2444769090262
 20
133.73641716395377
 30
0.0
 70
0
  0
VERTEX
  5
1AC
  8
1
 10
-643.1752568234178
 20
126.05002317753952
 30
0.0
 70
0
  0
VERTEX
  5
1AD
  8
1
 10
-636.4464244569845
 20
118.93392172053564
 30
0.0
 70
0
  0
VERTEX
  5
1AE
  8
1
 10
-629.1113189218704
 20
112.44452176748382
 30
0.0
 70
0
  0
VERTEX
  5
1AF
  8
1
 10
-621.2280852268123
 20
106.63326446195788
 30
0.0
 70
0
  0
VERTEX
  5
1B0
  8
1
 10
-612.8592133646089
 20
101.5462153452354
 30
0.0
 70
0
  0
VERTEX
  5
1B1
  8
1
 10
-604.0710429571254
 20
97.22369919709172
 30
0.0
 70
0
  0
VERTEX
  5
1B2
  8
1
 10
-594.9332373844827
 20
93.69998038332142
 30
0.0
 70
0
  0
VERTEX
  5
1B3
  8
1
 10
-585.5182315669854
 20
91.0029912438522
 30
0.0
 70
0
  0
VERTEX
  5
1B4
  8
1
 10
-575.9006577771861
 20
89.15411067450577
 30
0.0
 70
0
  0
SEQEND
  5
164
  8
1
  0
ENDBLK
  5
162
  8
0
  0
BLOCK
  5
1B8
  8
0
  2
F15-PATCH-reflY12
 70
0
 10
0.0
 20
0.0
 30
0.0
  3
F15-PATCH-reflY12
  1

  0
POLYLINE
  5
1BA
  8
1
 66
1
 70
0
  0
VERTEX
  5
1BC
  8
1
 10
-71.21840305784917
 20
-255.43667925398995
 30
0.0
 70
0
  0
VERTEX
  5
1BD
  8
1
 10
151.4162535466503
 20
-161.37327070099195
 30
0.0
 70
0
  0
VERTEX
  5
1BE
  8
1
 10
55.76959451592029
 20
-98.76283012301997
 30
0.0
 70
0
  0
VERTEX
  5
1BF
  8
1
 10
80.71944641033133
 20
5.4327006555549815
 30
0.0
 70
0
  0
VERTEX
  5
1C0
  8
1
 10
139.24471298296066
 20
255.43667925398995
 30
0.0
 70
0
  0
VERTEX
  5
1C1
  8
1
 10
-93.08806705524967
 20
188.72201436093496
 30
0.0
 70
0
  0
VERTEX
  5
1C2
  8
1
 10
-151.4162535466512
 20
-65.385047261414
 30
0.0
 70
0
  0
VERTEX
  5
1C3
  8
1
 10
-146.45659162074662
 20
-77.13837777345111
 30
0.0
 70
0
  0
VERTEX
  5
1C4
  8
1
 10
-151.4162535466503
 20
-65.3850472614181
 30
0.0
 70
0
  0
VERTEX
  5
1C5
  8
1
 10
-71.21840305784917
 20
-255.43667925398995
 30
0.0
 70
0
  0
SEQEND
  5
1BB
  8
1
  0
ENDBLK
  5
1B9
  8
0
  0
BLOCK
  5
1C9
  8
0
  2
F15-PATCH-reflY13
 70
0
 10
0.0
 20
0.0
 30
0.0
  3
F15-PATCH-reflY13
  1

  0
POLYLINE
  5
1CB
  8
1
 66
1
 70
0
  0
VERTEX
  5
1CD
  8
1
 10
-109.7825814840935
 20
44.25202284509351
 30
0.0
 70
0
  0
VERTEX
  5
1CE
  8
1
 10
-105.57559259737718
 20
22.368957392397533
 30
0.0
 70
0
  0
VERTEX
  5
1CF
  8
1
 10
-97.04465826745309
 20
1.7827856123294623
 30
0.0
 70
0
  0
VERTEX
  5
1D0
  8
1
 10
-84.53987627153674
 20
-16.661664402093265
 30
0.0
 70
0
  0
VERTEX
  5
1D1
  8
1
 10
-68.57442561347852
 20
-32.207457864798016
 30
0.0
 70
0
  0
VERTEX
  5
1D2
  8
1
 10
-49.803506365332396
 20
-44.21661685614799
 30
0.0
 70
0
  0
VERTEX
  5
1D3
  8
1
 10
-28.997451160187666
 20
-52.19630205673093
 30
0.0
 70
0
  0
VERTEX
  5
1D4
  8
1
 10
-7.010111803515429
 20
-55.819038193198594
 30
0.0
 70
0
  0
VERTEX
  5
1D5
  8
1
 10
15.25618162711362
 20
-54.93615317176
 30
0.0
 70
0
  0
VERTEX
  5
1D6
  8
1
 10
36.88765116372542
 20
-49.58387937583211
 30
0.0
 70
0
  0
VERTEX
  5
1D7
  8
1
 10
56.99657113527246
 20
-39.981866739002726
 30
0.0
 70
0
  0
VERTEX
  5
1D8
  8
1
 10
74.75769920463426
 20
-26.524168614743303
 30
0.0
 70
0
  0
VERTEX
  5
1D9
  8
1
 10
89.44214317577735
 20
-9.763070370347123
 30
0.0
 70
0
  0
VERTEX
  5
1DA
  8
1
 10
100.44727372404304
 20
9.613575642716114
 30
0.0
 70
0
  0
VERTEX
  5
1DB
  8
1
 10
107.32145547235359
 20
30.81057860047258
 30
0.0
 70
0
  0
VERTEX
  5
1DC
  8
1
 10
109.78258148409441
 20
52.958042740962355
 30
0.0
 70
0
  0
VERTEX
  5
1DD
  8
1
 10
19.701655175025735
 20
55.819038193198594
 30
0.0
 70
0
  0
VERTEX
  5
1DE
  8
1
 10
-109.7825814840935
 20
44.25202284509351
 30
0.0
 70
0
  0
SEQEND
  5
1CC
  8
1
  0
ENDBLK
  5
1CA
  8
0
  0
BLOCK
  5
1E2
  8
0
  2
F15-PATCH-reflY14
 70
0
 10
0.0
 20
0.0
 30
0.0
  3
F15-PATCH-reflY14
  1

  0
POLYLINE
  5
1E4
  8
1
 66
1
 70
0
  0
VERTEX
  5
1E6
  8
1
 10
-101.12566414435878
 20
43.25406234118327
 30
0.0
 70
0
  0
VERTEX
  5
1E7
  8
1
 10
-97.89769809337213
 20
25.392463964011768
 30
0.0
 70
0
  0
VERTEX
  5
1E8
  8
1
 10
-91.776409861086
 20
8.304857584212186
 30
0.0
 70
0
  0
VERTEX
  5
1E9
  8
1
 10
-82.9284687004183
 20
-7.5434987542553245
 30
0.0
 70
0
  0
VERTEX
  5
1EA
  8
1
 10
-71.59478464323547
 20
-21.72108906804442
 30
0.0
 70
0
  0
VERTEX
  5
1EB
  8
1
 10
-58.083949048566865
 20
-33.84188866821614
 30
0.0
 70
0
  0
VERTEX
  5
1EC
  8
1
 10
-42.76383233672368
 20
-43.57587476586423
 30
0.0
 70
0
  0
VERTEX
  5
1ED
  8
1
 10
-26.051567684592555
 20
-50.65801226882377
 30
0.0
 70
0
  0
VERTEX
  5
1EE
  8
1
 10
-8.402193404116588
 20
-54.89547010594106
 30
0.0
 70
0
  0
VERTEX
  5
1EF
  8
1
 10
9.703736752919212
 20
-56.17287159420721
 30
0.0
 70
0
  0
VERTEX
  5
1F0
  8
1
 10
27.773238019561177
 20
-54.45543589278486
 30
0.0
 70
0
  0
VERTEX
  5
1F1
  8
1
 10
45.314317507642045
 20
-49.78992500902086
 30
0.0
 70
0
  0
VERTEX
  5
1F2
  8
1
 10
61.84937009505302
 20
-42.30337057154793
 30
0.0
 70
0
  0
VERTEX
  5
1F3
  8
1
 10
76.9281825656999
 20
-32.1996150376508
 30
0.0
 70
0
  0
VERTEX
  5
1F4
  8
1
 10
90.14019192793785
 20
-19.753761510237837
 30
0.0
 70
0
  0
VERTEX
  5
1F5
  8
1
 10
101.12566414435878
 20
-5.3046832837230795
 30
0.0
 70
0
  0
VERTEX
  5
1F6
  8
1
 10
31.61942094355436
 20
56.172871594206754
 30
0.0
 70
0
  0
VERTEX
  5
1F7
  8
1
 10
-101.12566414435878
 20
43.25406234118327
 30
0.0
 70
0
  0
SEQEND
  5
1E5
  8
1
  0
ENDBLK
  5
1E3
  8
0
  0
BLOCK
  5
1FB
  8
0
  2
F15-PATCH-reflY15
 70
0
 10
0.0
 20
0.0
 30
0.0
  3
F15-PATCH-reflY15
  1

  0
POLYLINE
  5
1FD
  8
1
 66
1
 70
0
  0
VERTEX
  5
1FF
  8
1
 10
37.093710516640385
 20
-84.05491665735371
 30
0.0
 70
0
  0
VERTEX
  5
200
  8
1
 10
60.953570292933364
 20
17.867897576591076
 30
0.0
 70
0
  0
VERTEX
  5
201
  8
1
 10
-43.97548759782603
 20
84.05491665735371
 30
0.0
 70
0
  0
VERTEX
  5
202
  8
1
 10
-51.03979337196688
 20
70.99973532183594
 30
0.0
 70
0
  0
VERTEX
  5
203
  8
1
 10
-56.28206428620888
 20
57.11230318210937
 30
0.0
 70
0
  0
VERTEX
  5
204
  8
1
 10
-59.60683807780333
 20
42.64551172689971
 30
0.0
 70
0
  0
VERTEX
  5
205
  8
1
 10
-60.953570292933364
 20
27.86280263436356
 30
0.0
 70
0
  0
VERTEX
  5
206
  8
1
 10
-60.29773680709695
 20
13.033370473533523
 30
0.0
 70
0
  0
VERTEX
  5
207
  8
1
 10
-57.651280411800144
 20
-1.572739354945952
 30
0.0
 70
0
  0
VERTEX
  5
208
  8
1
 10
-53.06239333516078
 20
-15.689548171802016
 30
0.0
 70
0
  0
VERTEX
  5
209
  8
1
 10
-46.61463965675375
 20
-29.05998751672996
 30
0.0
 70
0
  0
VERTEX
  5
20A
  8
1
 10
-38.425433597598385
 20
-41.44058039003403
 30
0.0
 70
0
  0
VERTEX
  5
20B
  8
1
 10
-28.643901395789726
 20
-52.6058749924523
 30
0.0
 70
0
  0
VERTEX
  5
20C
  8
1
 10
-17.44816570320745
 20
-62.35255022432739
 30
0.0
 70
0
  0
VERTEX
  5
20D
  8
1
 10
-5.042101954718419
 20
-70.50311818258933
 30
0.0
 70
0
  0
VERTEX
  5
20E
  8
1
 10
8.348374223302017
 20
-76.9091562327153
 30
0.0
 70
0
  0
VERTEX
  5
20F
  8
1
 10
22.47942095848248
 20
-81.45400979932947
 30
0.0
 70
0
  0
VERTEX
  5
210
  8
1
 10
37.093710516640385
 20
-84.05491665735371
 30
0.0
 70
0
  0
SEQEND
  5
1FE
  8
1
  0
LINE
  5
211
  8
8
 10
54.42582802193556
 20
-10.016837249682794
 30
0.0
 11
-41.29483605532914
 21
-37.50315246617902
 31
0.0
  0
LINE
  5
212
  8
8
 10
60.953570292933364
 20
17.867897576591076
 30
0.0
 11
-53.35400320657118
 21
-14.955673249288793
 31
0.0
  0
CIRCLE
  5
213
  8
8
 10
29.74412528103221
 20
-24.948098954035686
 30
0.0
 40
4.0
  0
ENDBLK
  5
1FC
  8
0
  0
ENDSEC
  0
SECTION
  2
ENTITIES
  0
INSERT
  5
3A
  8
0
  2
F15-PATCH-reflY0
 10
75.01367914166863
 20
-583.2575461040663
 30
0.0
  0
INSERT
  5
46
  8
0
  2
F15-PATCH-reflY1
 10
128.6272772737727
 20
-398.7146996464935
 30
0.0
  0
INSERT
  5
74
  8
0
  2
F15-PATCH-reflY2
 10
-373.3472524292814
 20
1457.4851026288961
 30
0.0
  0
INSERT
  5
8E
  8
0
  2
F15-PATCH-reflY3
 10
2768.4800353730784
 20
357.2404429907866
 30
0.0
  0
INSERT
  5
BE
  8
0
  2
F15-PATCH-reflY4
 10
778.0264014774084
 20
2746.5195800646034
 30
0.0
  0
INSERT
  5
FD
  8
0
  2
F15-PATCH-reflY5
 10
879.2312852908842
 20
3325.829575116376
 30
0.0
  0
INSERT
  5
108
  8
0
  2
F15-PATCH-reflY6
 10
1854.7879516065495
 20
2718.462700102012
 30
0.0
  0
INSERT
  5
121
  8
0
  2
F15-PATCH-reflY7
 10
1965.5000157959694
 20
2981.768656908628
 30
0.0
  0
INSERT
  5
12C
  8
0
  2
F15-PATCH-reflY8
 10
2650.036654883696
 20
2719.2281300837235
 30
0.0
  0
INSERT
  5
145
  8
0
  2
F15-PATCH-reflY9
 10
2757.7453199163506
 20
2972.8384036622933
 30
0.0
  0
INSERT
  5
15E
  8
0
  2
F15-PATCH-reflY10
 10
3524.4949810449507
 20
2977.596387149789
 30
0.0
  0
INSERT
  5
1B5
  8
0
  2
F15-PATCH-reflY11
 10
4771.098695064384
 20
2359.63074187044
 30
0.0
  0
INSERT
  5
1C6
  8
0
  2
F15-PATCH-reflY12
 10
5660.105544563507
 20
1668.990873870581
 30
0.0
  0
INSERT
  5
1DF
  8
0
  2
F15-PATCH-reflY13
 10
4269.4976503476955
 20
2992.4849414185446
 30
0.0
  0
INSERT
  5
1F8
  8
0
  2
F15-PATCH-reflY14
 10
4983.970604743924
 20
3011.7145007168792
 30
0.0
  0
INSERT
  5
214
  8
0
  2
F15-PATCH-reflY15
 10
5437.481333325567
 20
2688.352603449832
 30
0.0
  0
ENDSEC
  0
EOF
